<svg xmlns="http://www.w3.org/2000/svg" viewBox="-1000 -1000 2000 2000"><circle cx="0" cy="0" r="760" fill="none" stroke="#9aa0a8" stroke-width="26" opacity="0.7"/><line x1="0" y1="-690" x2="0" y2="-830" stroke="#9aa0a8" stroke-width="26" stroke-linecap="round"/><line x1="345" y1="-598" x2="415" y2="-719" stroke="#9aa0a8" stroke-width="26" stroke-linecap="round"/><line x1="598" y1="-345" x2="719" y2="-415" stroke="#9aa0a8" stroke-width="26" stroke-linecap="round"/><line x1="690" y1="0" x2="830" y2="0" stroke="#9aa0a8" stroke-width="26" stroke-linecap="round"/><line x1="598" y1="345" x2="719" y2="415" stroke="#9aa0a8" stroke-width="26" stroke-linecap="round"/><line x1="345" y1="598" x2="415" y2="719" stroke="#9aa0a8" stroke-width="26" stroke-linecap="round"/><line x1="0" y1="690" x2="0" y2="830" stroke="#9aa0a8" stroke-width="26" stroke-linecap="round"/><line x1="-345" y1="598" x2="-415" y2="719" stroke="#9aa0a8" stroke-width="26" stroke-linecap="round"/><line x1="-598" y1="345" x2="-719" y2="415" stroke="#9aa0a8" stroke-width="26" stroke-linecap="round"/><line x1="-690" y1="0" x2="-830" y2="0" stroke="#9aa0a8" stroke-width="26" stroke-linecap="round"/><line x1="-598" y1="-345" x2="-719" y2="-415" stroke="#9aa0a8" stroke-width="26" stroke-linecap="round"/><line x1="-345" y1="-598" x2="-415" y2="-719" stroke="#9aa0a8" stroke-width="26" stroke-linecap="round"/><circle cx="0" cy="-760" r="150" fill="#9558B2"/><circle cx="380" cy="658" r="150" fill="#CB3C33"/><circle cx="-760" cy="0" r="150" fill="#389826"/><text x="-565.75" y="227.54" font-family="JuliaMono, monospace" font-weight="700" font-size="620" xml:space="preserve"><tspan fill="#9558B2">H</tspan><tspan fill="#CB3C33">R</tspan><tspan fill="#389826">L</tspan></text></svg>
